# Blender v2.80 (sub 75) OBJ File: 'bar.blend'
# www.blender.org
mtllib bar.mtl
o Cube_Cube.001
v -0.102363 -0.003508 0.179188
v -0.091725 0.076103 0.148593
v -0.102363 -0.003508 -0.179188
v -0.091725 0.076103 -0.148593
v 0.102363 -0.003508 0.179188
v 0.091725 0.076103 0.148593
v 0.102363 -0.003508 -0.179188
v 0.091725 0.076103 -0.148593
v -0.085691 0.086936 0.138819
v -0.085691 0.086936 -0.138819
v 0.085691 0.086936 -0.138819
v 0.085691 0.086936 0.138819
vt 0.558940 0.843447
vt 0.747547 0.156821
vt 0.747547 0.843447
vt 0.499485 0.116073
vt 0.000582 0.000461
vt 0.499485 0.000461
vt 0.946300 0.156539
vt 0.752734 0.842279
vt 0.752734 0.156539
vt 0.000582 0.882722
vt 0.499485 0.999729
vt 0.000582 0.999729
vt 0.495720 0.839813
vt 0.001256 0.156183
vt 0.495720 0.156183
vt 0.501462 0.156821
vt 0.558940 0.156821
vt 0.000582 0.116073
vt 0.946300 0.842279
vt 0.499485 0.882722
vt 0.001256 0.839813
vt 0.998838 0.842279
vt 0.499485 0.163208
vt 0.000582 0.839300
vt 0.000582 0.163207
vt 0.499485 0.839300
vt 0.501462 0.843447
vt 0.998838 0.156539
vn -0.9912 0.1325 0.0000
vn 0.0000 0.3587 -0.9334
vn 0.9912 0.1325 0.0000
vn 0.0000 0.3587 0.9334
vn 0.0000 -1.0000 0.0000
vn -0.8736 0.4866 0.0000
vn 0.8736 0.4866 0.0000
vn 0.0000 1.0000 0.0000
vn 0.0000 0.6699 0.7425
vn 0.0000 0.6699 -0.7425
usemtl Material.001
s off
f 2/1/1 3/2/1 1/3/1
f 4/4/2 7/5/2 3/6/2
f 8/7/3 5/8/3 7/9/3
f 6/10/4 1/11/4 5/12/4
f 7/13/5 1/14/5 3/15/5
f 2/1/6 10/16/6 4/17/6
f 2/1/1 4/17/1 3/2/1
f 4/4/2 8/18/2 7/5/2
f 8/7/3 6/19/3 5/8/3
f 6/10/4 2/20/4 1/11/4
f 7/13/5 5/21/5 1/14/5
f 8/7/7 12/22/7 6/19/7
f 10/23/8 12/24/8 11/25/8
f 10/23/8 9/26/8 12/24/8
f 6/10/9 9/26/9 2/20/9
f 4/4/10 11/25/10 8/18/10
f 2/1/6 9/27/6 10/16/6
f 8/7/7 11/28/7 12/22/7
f 6/10/9 12/24/9 9/26/9
f 4/4/10 10/23/10 11/25/10
