# Blender v2.80 (sub 75) OBJ File: 'beam.blend'
# www.blender.org
mtllib beam.mtl
o Plane
v -0.866025 -0.500000 2.000000
v 0.866025 0.500000 2.000000
v -0.866025 -0.500000 -2.000000
v 0.866025 0.500000 -2.000000
vt 0.006224 0.006224
vt 0.993776 0.993776
vt 0.006224 0.993776
vt 0.993776 0.006224
vn -0.5000 0.8660 0.0000
usemtl red_aura
s off
f 2/1/1 3/2/1 1/3/1
f 2/1/1 4/4/1 3/2/1
o Plane.001_Plane.003
v 0.000000 1.000000 2.000000
v -0.000000 -1.000000 2.000000
v 0.000000 1.000000 -2.000000
v -0.000000 -1.000000 -2.000000
vt 0.006224 0.006224
vt 0.993776 0.993776
vt 0.006224 0.993776
vt 0.993776 0.006224
vn 1.0000 -0.0000 0.0000
usemtl red_aura.003
s off
f 6/5/2 7/6/2 5/7/2
f 6/5/2 8/8/2 7/6/2
o Plane.002_Plane.004
v -0.866025 0.500000 2.000000
v 0.866025 -0.500000 2.000000
v -0.866025 0.500000 -2.000000
v 0.866025 -0.500000 -2.000000
vt 0.006224 0.006224
vt 0.993776 0.993776
vt 0.006224 0.993776
vt 0.993776 0.006224
vn 0.5000 0.8660 0.0000
usemtl red_aura.004
s off
f 10/9/3 11/10/3 9/11/3
f 10/9/3 12/12/3 11/10/3
