# Blender v2.80 (sub 75) OBJ File: 'nugget.blend'
# www.blender.org
mtllib nugget.mtl
o Icosphere
v 0.028755 -0.005343 0.020761
v -0.007951 -0.001260 0.034148
v -0.030568 0.008069 -0.003105
v -0.009692 0.000707 -0.031005
v 0.027657 -0.001032 -0.020212
v 0.016038 0.028572 0.049300
v -0.044351 0.018415 0.029486
v -0.033586 0.030250 -0.029820
v 0.014928 0.035186 -0.044809
v 0.051667 0.029108 -0.000101
v 0.031395 0.053482 0.000283
v 0.008850 0.052491 0.029215
v -0.029387 0.054744 0.019602
v -0.026224 0.053881 -0.018106
v -0.001107 0.053235 -0.021450
v -0.000634 0.067135 0.000233
v 0.012202 -0.004352 0.032041
v 0.031874 -0.004205 -0.000122
v -0.022170 0.000870 0.015857
v -0.019646 0.001232 -0.020829
v 0.009505 0.004386 -0.029950
v 0.037582 0.008621 0.012135
v 0.037127 0.009739 -0.011659
v 0.001913 0.010917 0.037157
v 0.023651 0.008548 0.032121
v -0.037612 0.010643 0.009270
v -0.024709 0.007703 0.033727
v -0.012343 0.009289 -0.028968
v -0.032478 0.013643 -0.015572
v 0.019361 0.009981 -0.030060
v 0.000321 0.009938 -0.035158
v 0.031962 0.029927 0.024272
v -0.017643 0.025436 0.043515
v -0.039453 0.026086 0.001713
v -0.009860 0.028168 -0.036245
v 0.033398 0.029431 -0.023584
v 0.042147 0.038341 0.000853
v -0.039490 0.035581 0.026432
v 0.014018 0.039066 0.039336
v 0.004312 0.044309 -0.027577
v -0.034757 0.043504 -0.025004
v 0.019410 0.051687 0.014606
v -0.010805 0.057165 0.025146
v -0.029292 0.057796 0.001188
v -0.014630 0.055316 -0.019025
v 0.012872 0.055302 -0.014445
v 0.003903 0.062063 0.014457
v 0.014632 0.057806 0.000223
v -0.015295 0.061777 0.010101
v -0.012773 0.061856 -0.008155
v 0.003375 0.062766 -0.013609
v 0.024488 0.038099 0.023492
v -0.038447 0.041450 -0.005381
v 0.023834 0.047073 -0.021268
v -0.007316 0.040780 0.035778
v -0.016121 0.040588 -0.026830
vt 0.929948 0.258298
vt 0.988379 0.625964
vt 0.881421 0.462221
vt 0.421647 0.046654
vt 0.730698 0.065403
vt 0.528645 0.137350
vt 0.062443 0.462653
vt 0.087205 0.198084
vt 0.125649 0.361947
vt 0.212643 0.983235
vt 0.020668 0.754638
vt 0.172429 0.819330
vt 0.833945 0.892683
vt 0.519196 1.000067
vt 0.622770 0.908269
vt 0.752521 0.221174
vt 0.271759 0.177331
vt 0.110659 0.578399
vt 0.386131 0.926469
vt 0.831882 0.714951
vt 0.593501 0.244460
vt 0.630240 0.406596
vt 0.562622 0.321261
vt 0.171465 0.642417
vt 0.243191 0.508417
vt 0.251386 0.607231
vt 0.500699 0.832955
vt 0.568580 0.683964
vt 0.658183 0.741409
vt 0.444316 0.321232
vt 0.378709 0.214260
vt 0.325612 0.677149
vt 0.321036 0.797787
vt 0.513257 0.401662
vt 0.561047 0.471915
vt 0.481214 0.465653
vt 0.333472 0.410814
vt 0.422223 0.400669
vt 0.392423 0.469194
vt 0.317756 0.576670
vt 0.319875 0.493364
vt 0.387168 0.553405
vt 0.424051 0.647207
vt 0.360003 0.613573
vt 0.454560 0.590655
vt 0.596022 0.552051
vt 0.504421 0.622695
vt 0.518973 0.539465
vt 0.702384 0.393294
vt 0.151525 0.445517
vt 0.444402 0.715241
vt 0.268988 0.345855
vt 0.197329 0.277652
vt 0.692560 0.566397
vt 0.768970 0.582562
vt 0.449167 0.525525
vn 0.8683 -0.4851 0.1032
vn 0.0567 -0.2826 0.9576
vn -0.4993 -0.8600 -0.1053
vn -0.7152 -0.0555 -0.6967
vn 0.2820 -0.5127 -0.8109
vn 0.8096 -0.1635 0.5637
vn -0.1077 -0.1554 0.9820
vn -0.6549 -0.7222 -0.2226
vn -0.4410 0.0760 -0.8943
vn 0.7166 -0.0798 -0.6929
vn 0.7112 0.5512 0.4363
vn -0.9822 -0.0190 -0.1867
vn 0.7275 0.4611 -0.5081
vn -0.1910 0.5414 0.8188
vn -0.1764 0.5366 -0.8252
vn 0.5219 0.7848 0.3341
vn -0.2220 0.9117 0.3457
vn -0.3575 0.9025 -0.2400
vn -0.0375 0.6453 -0.7630
vn 0.2458 0.9502 -0.1917
vn 0.6407 0.6281 0.4416
vn -0.9824 -0.0214 -0.1856
vn 0.0219 0.8891 -0.4572
vn -0.0671 0.6802 0.7300
vn -0.0392 0.3382 -0.9403
vn -0.0844 0.4732 -0.8769
vn -0.0131 0.4692 -0.8830
vn -0.1382 0.6246 -0.7686
vn -0.3080 0.4708 0.8267
vn -0.0985 0.5268 0.8442
vn -0.0245 0.5958 0.8028
vn 0.3885 0.8370 -0.3852
vn 0.1180 0.7223 -0.6815
vn 0.2619 0.6492 -0.7141
vn -0.8739 0.4823 0.0603
vn -0.9982 0.0549 -0.0226
vn -0.9619 0.2547 -0.0993
vn 0.6791 0.5024 0.5351
vn 0.6196 0.6134 0.4898
vn 0.6315 0.6005 0.4904
vn 0.5177 0.8474 -0.1175
vn 0.5938 0.7783 -0.2042
vn 0.3261 0.5044 -0.7995
vn -0.1672 0.9253 -0.3404
vn -0.2094 0.8533 -0.4776
vn -0.1452 0.8586 -0.4917
vn -0.3707 0.9275 -0.0472
vn -0.2551 0.9664 -0.0311
vn -0.3582 0.9214 0.1509
vn -0.0958 0.9275 0.3613
vn -0.0856 0.9451 0.3153
vn 0.0945 0.8494 0.5192
vn 0.5166 0.8453 0.1366
vn 0.5472 0.8202 0.1672
vn 0.2362 0.9199 0.3129
vn -0.4038 0.6820 -0.6098
vn -0.1313 0.5560 -0.8207
vn -0.1239 0.5093 -0.8516
vn -0.5035 0.2876 0.8147
vn -0.3119 0.5867 0.7473
vn -0.3154 0.4618 0.8290
vn 0.5962 0.6617 -0.4547
vn 0.7617 0.4713 -0.4446
vn 0.7487 0.5160 -0.4161
vn -0.6604 0.7085 -0.2488
vn -0.8490 0.5178 -0.1054
vn -0.8823 0.4650 0.0725
vn 0.6665 0.5951 0.4490
vn 0.7112 0.5511 0.4364
vn 0.5839 0.5858 0.5620
vn 0.7688 -0.2184 -0.6011
vn 0.6899 -0.2749 -0.6697
vn 0.6880 -0.2726 -0.6726
vn -0.2671 -0.2054 -0.9415
vn -0.4098 -0.2807 -0.8679
vn -0.2738 -0.3144 -0.9090
vn -0.9477 -0.2419 -0.2083
vn -0.9491 -0.2223 -0.2230
vn -0.9470 -0.2250 -0.2291
vn -0.3687 -0.3323 0.8681
vn -0.0577 -0.4647 0.8836
vn -0.0995 -0.5086 0.8552
vn 0.8395 -0.1329 0.5269
vn 0.8157 -0.1085 0.5682
vn 0.7659 -0.1537 0.6244
vn 0.2305 -0.4609 -0.8570
vn 0.2344 -0.4301 -0.8718
vn 0.1482 -0.5350 -0.8318
vn -0.5371 -0.5696 -0.6222
vn -0.5732 -0.2641 -0.7757
vn -0.7215 -0.6666 -0.1875
vn -0.4991 -0.8515 0.1610
vn -0.5862 -0.7810 0.2154
vn -0.4606 -0.8489 0.2592
vn 0.1117 -0.6222 0.7748
vn 0.2025 -0.1857 0.9615
vn 0.4882 -0.4379 0.7549
vn 0.8111 -0.5833 -0.0429
vn 0.9252 -0.3779 -0.0355
vn 0.8174 -0.5175 -0.2533
usemtl Material.001
s off
f 1/1/1 18/2/1 22/3/1
f 2/4/2 17/5/2 24/6/2
f 3/7/3 19/8/3 26/9/3
f 4/10/4 20/11/4 28/12/4
f 5/13/5 21/14/5 30/15/5
f 1/1/6 22/3/6 25/16/6
f 2/4/7 24/6/7 27/17/7
f 3/7/8 26/9/8 29/18/8
f 4/10/9 28/12/9 31/19/9
f 5/13/10 30/15/10 23/20/10
f 6/21/11 52/22/11 39/23/11
f 8/24/12 53/25/12 41/26/12
f 9/27/13 54/28/13 36/29/13
f 6/21/14 55/30/14 33/31/14
f 8/24/15 56/32/15 35/33/15
f 12/34/16 42/35/16 47/36/16
f 13/37/17 43/38/17 49/39/17
f 14/40/18 44/41/18 50/42/18
f 15/43/19 45/44/19 51/45/19
f 11/46/20 46/47/20 48/48/20
f 6/21/21 32/49/21 52/22/21
f 8/24/22 34/50/22 53/25/22
f 9/27/23 40/51/23 54/28/23
f 6/21/24 39/23/24 55/30/24
f 8/24/25 41/26/25 56/32/25
f 56/32/26 45/44/26 15/43/26
f 56/32/27 41/26/27 45/44/27
f 41/26/28 14/40/28 45/44/28
f 55/30/29 43/38/29 13/37/29
f 55/30/30 39/23/30 43/38/30
f 39/23/31 12/34/31 43/38/31
f 54/28/32 46/47/32 11/46/32
f 54/28/33 40/51/33 46/47/33
f 40/51/34 15/43/34 46/47/34
f 53/25/35 38/52/35 13/37/35
f 53/25/36 34/50/36 38/52/36
f 34/50/37 7/53/37 38/52/37
f 52/22/38 37/54/38 11/46/38
f 52/22/39 32/49/39 37/54/39
f 32/49/40 10/55/40 37/54/40
f 48/48/41 51/45/41 16/56/41
f 48/48/42 46/47/42 51/45/42
f 46/47/43 15/43/43 51/45/43
f 51/45/44 50/42/44 16/56/44
f 51/45/45 45/44/45 50/42/45
f 45/44/46 14/40/46 50/42/46
f 50/42/47 49/39/47 16/56/47
f 50/42/48 44/41/48 49/39/48
f 44/41/49 13/37/49 49/39/49
f 49/39/50 47/36/50 16/56/50
f 49/39/51 43/38/51 47/36/51
f 43/38/52 12/34/52 47/36/52
f 47/36/53 48/48/53 16/56/53
f 47/36/54 42/35/54 48/48/54
f 42/35/55 11/46/55 48/48/55
f 35/33/56 40/51/56 9/27/56
f 35/33/57 56/32/57 40/51/57
f 56/32/58 15/43/58 40/51/58
f 33/31/59 38/52/59 7/53/59
f 33/31/60 55/30/60 38/52/60
f 55/30/61 13/37/61 38/52/61
f 36/29/62 37/54/62 10/55/62
f 36/29/63 54/28/63 37/54/63
f 54/28/64 11/46/64 37/54/64
f 41/26/65 44/41/65 14/40/65
f 41/26/66 53/25/66 44/41/66
f 53/25/67 13/37/67 44/41/67
f 39/23/68 42/35/68 12/34/68
f 39/23/69 52/22/69 42/35/69
f 52/22/70 11/46/70 42/35/70
f 23/20/71 36/29/71 10/55/71
f 23/20/72 30/15/72 36/29/72
f 30/15/73 9/27/73 36/29/73
f 31/19/74 35/33/74 9/27/74
f 31/19/75 28/12/75 35/33/75
f 28/12/76 8/24/76 35/33/76
f 29/18/77 34/50/77 8/24/77
f 29/18/78 26/9/78 34/50/78
f 26/9/79 7/53/79 34/50/79
f 27/17/80 33/31/80 7/53/80
f 27/17/81 24/6/81 33/31/81
f 24/6/82 6/21/82 33/31/82
f 25/16/83 32/49/83 6/21/83
f 25/16/84 22/3/84 32/49/84
f 22/3/85 10/55/85 32/49/85
f 30/15/86 31/19/86 9/27/86
f 30/15/87 21/14/87 31/19/87
f 21/14/88 4/10/88 31/19/88
f 28/12/89 29/18/89 8/24/89
f 28/12/90 20/11/90 29/18/90
f 20/11/91 3/7/91 29/18/91
f 26/9/92 27/17/92 7/53/92
f 26/9/93 19/8/93 27/17/93
f 19/8/94 2/4/94 27/17/94
f 24/6/95 25/16/95 6/21/95
f 24/6/96 17/5/96 25/16/96
f 17/5/97 1/1/97 25/16/97
f 22/3/98 23/20/98 10/55/98
f 22/3/99 18/2/99 23/20/99
f 18/2/100 5/13/100 23/20/100
